<?xml version="1.0" encoding="UTF-8"?>
<svg version="1.1" xmlns="http://www.w3.org/2000/svg" width="186" height="64">
<path d="M0 0 C2.9375 1.625 2.9375 1.625 5 4 C6.19585292 8.61257555 6.0160634 12.37126674 5 17 C6.32 17.66 7.64 18.32 9 19 C7.76509518 22.87997387 6.50942955 26.75292406 5.25 30.625 C4.72792969 32.26662109 4.72792969 32.26662109 4.1953125 33.94140625 C-0.16997664 47.27978972 -0.16997664 47.27978972 -6.1875 50.9375 C-13.19247582 52.88970638 -19.04273119 51.60771379 -25.33984375 48.08984375 C-28.95389254 45.71732701 -29.80303109 43.82022803 -30.80859375 39.6328125 C-31.50286637 33.58517025 -29.14765833 28.23297243 -27.125 22.625 C-26.74730469 21.53316406 -26.36960937 20.44132812 -25.98046875 19.31640625 C-23.27889031 11.55778061 -23.27889031 11.55778061 -22 9 C-19.03 9.495 -19.03 9.495 -16 10 C-15.731875 8.906875 -15.46375 7.81375 -15.1875 6.6875 C-13.6478376 1.90644307 -13.6478376 1.90644307 -11 0 C-7.13622834 -1.28792389 -3.88658979 -0.9621772 0 0 Z M-10.9375 3.125 C-12.95421125 5.93617325 -13.7082593 7.59635851 -14 11 C-12.68 11.33 -11.36 11.66 -10 12 C-10.24758057 12.67579102 -10.49516113 13.35158203 -10.75024414 14.04785156 C-11.86549413 17.11130305 -12.96413837 20.18045514 -14.0625 23.25 C-14.45244141 24.31347656 -14.84238281 25.37695312 -15.24414062 26.47265625 C-15.60830078 27.49746094 -15.97246094 28.52226562 -16.34765625 29.578125 C-16.68804932 30.52075195 -17.02844238 31.46337891 -17.37915039 32.43457031 C-18.02505467 35.10352907 -17.92531647 36.4521031 -17 39 C-15.68 39.33 -14.36 39.66 -13 40 C-10.70940722 37.18689222 -9.34075389 34.66335107 -8.17578125 31.234375 C-7.86962891 30.34492188 -7.56347656 29.45546875 -7.24804688 28.5390625 C-6.93931641 27.61867188 -6.63058594 26.69828125 -6.3125 25.75 C-5.83200195 24.34621094 -5.83200195 24.34621094 -5.34179688 22.9140625 C-4.55469642 20.61149997 -3.77435917 18.30687221 -3 16 C-1.35 16 0.3 16 2 16 C3.58505557 12.53269093 4.58750054 9.81875349 4 6 C1.85780607 2.78670911 -0.25002232 1.68336032 -3.9375 0.9375 C-7.42813521 0.6574677 -7.90347521 0.93017356 -10.9375 3.125 Z M-19 18 C-19.33 19.98 -19.66 21.96 -20 24 C-19.34 23.34 -18.68 22.68 -18 22 C-18.3185177 19.89179203 -18.3185177 19.89179203 -19 18 Z M-21 24 C-20 27 -20 27 -20 27 Z M-1 24 C0 27 0 27 0 27 Z M-22 27 C-21 30 -21 30 -21 30 Z M-2 27 C-3.87543354 30.86763446 -3.87543354 30.86763446 -3 35 C-1.12456646 31.13236554 -1.12456646 31.13236554 -2 27 Z M-23 30 C-22 33 -22 33 -22 33 Z M-24 33 C-24 35.31 -24 37.62 -24 40 C-23.67 40 -23.34 40 -23 40 C-23 37.69 -23 35.38 -23 33 C-23.33 33 -23.66 33 -24 33 Z M-5 35 C-4 38 -4 38 -4 38 Z M-6 38 C-5 41 -5 41 -5 41 Z M-23 40 C-22.36020151 42.03241727 -22.36020151 42.03241727 -21 44 C-18.44480079 44.81171228 -18.44480079 44.81171228 -16 45 C-19.32086771 42.22999175 -19.32086771 42.22999175 -23 40 Z M-7 41 C-7.99 42.485 -7.99 42.485 -9 44 C-8.01 43.67 -7.02 43.34 -6 43 C-6.33 42.34 -6.66 41.68 -7 41 Z M-16 45 C-16 45.33 -16 45.66 -16 46 C-14.35 46 -12.7 46 -11 46 C-11 45.67 -11 45.34 -11 45 C-12.65 45 -14.3 45 -16 45 Z " fill="#1F4F90" transform="translate(31,1)"/>
<path d="M0 0 C3.74038342 2.06914828 4.76026283 3.20587064 6 7.3125 C6 11.61658175 4.82646807 14.13631753 3 18 C2.60235737 19.98821313 2.24544834 21.98732362 2 24 C1.01 24 0.02 24 -1 24 C-1.19335938 25.04994141 -1.19335938 25.04994141 -1.390625 26.12109375 C-2.71989684 32.40105109 -4.18894028 38.7973598 -8.3125 43.8125 C-12.03190302 45.45595715 -14.11586416 45.1097531 -18 44 C-20.9375 42.375 -20.9375 42.375 -23 40 C-24.0459251 34.30551892 -21.921902 29.85133192 -19.87890625 24.640625 C-18.78403479 21.35114454 -18.93375253 18.44486836 -19 15 C-17.6875 11.4375 -17.6875 11.4375 -16 8 C-15.54625 6.9275 -15.0925 5.855 -14.625 4.75 C-11.02438025 -1.3433565 -6.37297516 -1.86683111 0 0 Z M-10.9375 3.125 C-12.95421125 5.93617325 -13.7082593 7.59635851 -14 11 C-12.68 11.33 -11.36 11.66 -10 12 C-10.24758057 12.67579102 -10.49516113 13.35158203 -10.75024414 14.04785156 C-11.86549413 17.11130305 -12.96413837 20.18045514 -14.0625 23.25 C-14.45244141 24.31347656 -14.84238281 25.37695312 -15.24414062 26.47265625 C-15.60830078 27.49746094 -15.97246094 28.52226562 -16.34765625 29.578125 C-16.68804932 30.52075195 -17.02844238 31.46337891 -17.37915039 32.43457031 C-18.02505467 35.10352907 -17.92531647 36.4521031 -17 39 C-15.68 39.33 -14.36 39.66 -13 40 C-10.70940722 37.18689222 -9.34075389 34.66335107 -8.17578125 31.234375 C-7.86962891 30.34492188 -7.56347656 29.45546875 -7.24804688 28.5390625 C-6.93931641 27.61867188 -6.63058594 26.69828125 -6.3125 25.75 C-5.83200195 24.34621094 -5.83200195 24.34621094 -5.34179688 22.9140625 C-4.55469642 20.61149997 -3.77435917 18.30687221 -3 16 C-1.35 16 0.3 16 2 16 C3.58505557 12.53269093 4.58750054 9.81875349 4 6 C1.85780607 2.78670911 -0.25002232 1.68336032 -3.9375 0.9375 C-7.42813521 0.6574677 -7.90347521 0.93017356 -10.9375 3.125 Z " fill="#204E8F" transform="translate(31,1)"/>
<path d="M0 0 C7 0 7 0 8.77734375 1.3125 C9.8515625 2.875 10.92578125 4.4375 12 6 C12.33 4.02 12.66 2.04 13 0 C15.64 0 18.28 0 21 0 C21 7.92 21 15.84 21 24 C14 24 14 24 12.22265625 22.6875 C11.1484375 21.125 10.07421875 19.5625 9 18 C8.67 19.98 8.34 21.96 8 24 C5.36 24 2.72 24 0 24 C0 16.08 0 8.16 0 0 Z " fill="#295998" transform="translate(140,28)"/>
<path d="M0 0 C2.64 0 5.28 0 8 0 C8.33 0.99 8.66 1.98 9 3 C9.38800781 2.50886719 9.77601562 2.01773437 10.17578125 1.51171875 C12.61211696 -0.50725753 14.06930672 -0.30898805 17.1875 -0.1875 C18.08855469 -0.16042969 18.98960938 -0.13335938 19.91796875 -0.10546875 C20.94857422 -0.05326172 20.94857422 -0.05326172 22 0 C19.93992341 3.60513403 17.6486859 6.80331012 15 10 C16.3255581 13.62276315 17.94346955 16.63505348 20.125 19.8125 C20.66382812 20.60269531 21.20265625 21.39289062 21.7578125 22.20703125 C22.16773437 22.79871094 22.57765625 23.39039062 23 24 C19.61884349 24.29036649 16.37080851 24.44908891 13 24 C10.375 21.5 10.375 21.5 9 19 C8.67 20.65 8.34 22.3 8 24 C5.36 24 2.72 24 0 24 C0 16.08 0 8.16 0 0 Z " fill="#1D4E8F" transform="translate(61,28)"/>
<path d="M0 0 C13.24210988 -0.49503214 13.24210988 -0.49503214 16.89453125 1.890625 C19.65690561 4.65812436 19.96756484 5.41616718 20.1875 9.375 C20 13 20 13 18.8125 15.125 C18.544375 15.74375 18.27625 16.3625 18 17 C19.31865712 19.64225405 19.31865712 19.64225405 21 22 C21 22.66 21 23.32 21 24 C19.37581255 24.08090971 17.75048255 24.13914995 16.125 24.1875 C15.22007813 24.22230469 14.31515625 24.25710937 13.3828125 24.29296875 C12.20332031 24.14794922 12.20332031 24.14794922 11 24 C10.34 23.01 9.68 22.02 9 21 C8.67 21.99 8.34 22.98 8 24 C5.36 24 2.72 24 0 24 C0 16.08 0 8.16 0 0 Z M4 3 C4 8.94 4 14.88 4 21 C4.33 21 4.66 21 5 21 C5 15.06 5 9.12 5 3 C4.67 3 4.34 3 4 3 Z M8 7 C8 8.32 8 9.64 8 11 C9.32 10.67 10.64 10.34 12 10 C11.67 9.01 11.34 8.02 11 7 C10.01 7 9.02 7 8 7 Z M15 7 C16 11 16 11 16 11 Z M11 14 C12 16 12 16 12 16 Z " fill="#235495" transform="translate(39,28)"/>
<path d="M0 0 C2.97 0 5.94 0 9 0 C9 5.61 9 11.22 9 17 C10.32 17 11.64 17 13 17 C13 11.39 13 5.78 13 0 C15.64 0 18.28 0 21 0 C21.11638036 3.24969769 21.18730581 6.4988583 21.25 9.75 C21.28351563 10.67039062 21.31703125 11.59078125 21.3515625 12.5390625 C21.45002585 19.33303344 21.45002585 19.33303344 19.2578125 22.58203125 C15.60017334 24.87912989 12.26821812 25.19232872 8 25 C4.6974412 23.85911605 2.7185046 23.153397 0.85205078 20.15722656 C-0.07291527 17.81539274 -0.23112525 16.17876778 -0.1953125 13.671875 C-0.18886719 12.87265625 -0.18242188 12.0734375 -0.17578125 11.25 C-0.15902344 10.425 -0.14226562 9.6 -0.125 8.75 C-0.11597656 7.90953125 -0.10695313 7.0690625 -0.09765625 6.203125 C-0.07415817 4.13529396 -0.03828908 2.06761005 0 0 Z M4 3 C4 7.29 4 11.58 4 16 C4.33 16 4.66 16 5 16 C5 11.71 5 7.42 5 3 C4.67 3 4.34 3 4 3 Z M16 15 C17 18 17 18 17 18 Z " fill="#275797" transform="translate(84,28)"/>
<path d="M0 0 C14.77772467 -0.27366157 14.77772467 -0.27366157 18 2 C20.45700792 5.68551188 20.80737582 8.72174051 20 13 C17.875 16 17.875 16 15 18 C11.6875 18.3125 11.6875 18.3125 9 18 C9 19.98 9 21.96 9 24 C6.03 24 3.06 24 0 24 C0 16.08 0 8.16 0 0 Z M15 6 C16 8 16 8 16 8 Z M9 7 C9 8.32 9 9.64 9 11 C9.99 10.67 10.98 10.34 12 10 C11.67 9.01 11.34 8.02 11 7 C10.34 7 9.68 7 9 7 Z M15 10 C16 12 16 12 16 12 Z " fill="#28599A" transform="translate(107,28)"/>
<path d="M0 0 C1.4540625 0.0309375 1.4540625 0.0309375 2.9375 0.0625 C11.9375 17.0625 11.9375 17.0625 11.9375 24.0625 C9.2975 24.0625 6.6575 24.0625 3.9375 24.0625 C3.9375 23.4025 3.9375 22.7425 3.9375 22.0625 C1.2975 22.0625 -1.3425 22.0625 -4.0625 22.0625 C-4.0625 22.7225 -4.0625 23.3825 -4.0625 24.0625 C-6.7025 24.0625 -9.3425 24.0625 -12.0625 24.0625 C-11.44551463 18.68958572 -9.65542437 14.17971945 -7.5625 9.25 C-7.08103516 8.08694336 -7.08103516 8.08694336 -6.58984375 6.90039062 C-3.73600154 0.07624493 -3.73600154 0.07624493 0 0 Z M-1.0625 14.0625 C-1.0625 14.7225 -1.0625 15.3825 -1.0625 16.0625 C-0.4025 16.0625 0.2575 16.0625 0.9375 16.0625 C0.9375 15.4025 0.9375 14.7425 0.9375 14.0625 C0.2775 14.0625 -0.3825 14.0625 -1.0625 14.0625 Z M5.9375 18.0625 C6.9375 20.0625 6.9375 20.0625 6.9375 20.0625 Z " fill="#215192" transform="translate(174.0625,27.9375)"/>
<path d="M0 0 C7 0 7 0 8.77734375 1.3125 C9.8515625 2.875 10.92578125 4.4375 12 6 C12.33 4.02 12.66 2.04 13 0 C15.31 0 17.62 0 20 0 C20 7.59 20 15.18 20 23 C18.68 22.67 17.36 22.34 16 22 C16 20.35 16 18.7 16 17 C15.34 17 14.68 17 14 17 C12.2566021 14.71768011 10.61325344 12.43398256 9 10.0625 C6.1324978 5.36009682 6.1324978 5.36009682 2 2 C2.33 8.6 2.66 15.2 3 22 C2.01 22 1.02 22 0 22 C0 14.74 0 7.48 0 0 Z " fill="#1B4C8D" transform="translate(140,28)"/>
<path d="M0 0 C2.64 0 5.28 0 8 0 C8 7.92 8 15.84 8 24 C5.36 24 2.72 24 0 24 C0 16.08 0 8.16 0 0 Z " fill="#1E4F91" transform="translate(129,28)"/>
<path d="M0 0 C2.64 0 5.28 0 8 0 C8 5.61 8 11.22 8 17 C9.32 17 10.64 17 12 17 C12 11.39 12 5.78 12 0 C14.31 0 16.62 0 19 0 C18.67 0.99 18.34 1.98 18 3 C16.68 2.67 15.36 2.34 14 2 C14.01160156 3.14339844 14.02320312 4.28679688 14.03515625 5.46484375 C14.04453288 6.95572754 14.05363321 8.44661309 14.0625 9.9375 C14.07087891 10.69224609 14.07925781 11.44699219 14.08789062 12.22460938 C14.09652441 14.14994313 14.05224333 16.07535581 14 18 C13 19 13 19 9.125 19.3125 C6.9375 19.30078125 6.9375 19.30078125 5 19 C3.125 17 3.125 17 2 15 C1.34 15 0.68 15 0 15 C0 10.05 0 5.1 0 0 Z " fill="#1B4D8E" transform="translate(85,28)"/>
<path d="M0 0 C0.90492187 0.02320312 1.80984375 0.04640625 2.7421875 0.0703125 C4.10730469 0.09738281 4.10730469 0.09738281 5.5 0.125 C6.19867188 0.14820312 6.89734375 0.17140625 7.6171875 0.1953125 C5.55711091 3.80044653 3.2658734 6.99862262 0.6171875 10.1953125 C1.9427456 13.81807565 3.56065705 16.83036598 5.7421875 20.0078125 C6.28101562 20.79800781 6.81984375 21.58820312 7.375 22.40234375 C7.78492187 22.99402344 8.19484375 23.58570312 8.6171875 24.1953125 C5.3171875 24.1953125 2.0171875 24.1953125 -1.3828125 24.1953125 C-0.7228125 22.8753125 -0.0628125 21.5553125 0.6171875 20.1953125 C-0.0428125 19.5353125 -0.7028125 18.8753125 -1.3828125 18.1953125 C-1.6715625 17.5353125 -1.9603125 16.8753125 -2.2578125 16.1953125 C-3.6191829 13.77509846 -4.84827805 13.20912628 -7.3828125 12.1953125 C-6.3828125 10.1953125 -6.3828125 10.1953125 -4.8828125 8.7578125 C-3.13197258 7.1575772 -3.13197258 7.1575772 -2.3828125 4.1953125 C-3.0428125 3.5353125 -3.7028125 2.8753125 -4.3828125 2.1953125 C-2.3828125 0.1953125 -2.3828125 0.1953125 0 0 Z " fill="#205091" transform="translate(75.3828125,27.8046875)"/>
<path d="M0 0 C3.63 0 7.26 0 11 0 C11.33 0.66 11.66 1.32 12 2 C9.36 2 6.72 2 4 2 C4.16371094 2.54140625 4.32742187 3.0828125 4.49609375 3.640625 C5.08590587 6.40222593 5.09609308 8.92818139 5.0625 11.75 C5.05347656 12.73484375 5.04445313 13.7196875 5.03515625 14.734375 C5.02355469 15.48203125 5.01195313 16.2296875 5 17 C5.66 17.33 6.32 17.66 7 18 C7.625 20.5625 7.625 20.5625 8 23 C5.36 23 2.72 23 0 23 C0 15.41 0 7.82 0 0 Z " fill="#1B4D8F" transform="translate(107,28)"/>
<path d="M0 0 C0.66 0.33 1.32 0.66 2 1 C0.35 5.29 -1.3 9.58 -3 14 C-2.34 14.33 -1.68 14.66 -1 15 C-0.67 13.35 -0.34 11.7 0 10 C0.66 10 1.32 10 2 10 C1.67 11.32 1.34 12.64 1 14 C2.65 14.33 4.3 14.66 6 15 C6.33 14.01 6.66 13.02 7 12 C7.33 13.98 7.66 15.96 8 18 C7.01 18 6.02 18 5 18 C5.33 18.66 5.66 19.32 6 20 C3.36 20 0.72 20 -2 20 C-2 20.66 -2 21.32 -2 22 C-4.64 22 -7.28 22 -10 22 C-10 21.34 -10 20.68 -10 20 C-9.01 19.67 -8.02 19.34 -7 19 C-6.11324442 17.24098884 -6.11324442 17.24098884 -5.5625 15.0625 C-4.00514724 9.90998184 -2.04625712 4.97541706 0 0 Z M-5 16 C-4.67 16.99 -4.34 17.98 -4 19 C-4 18.01 -4 17.02 -4 16 C-4.33 16 -4.66 16 -5 16 Z " fill="#3464A2" transform="translate(172,30)"/>
<path d="M0 0 C3.74038342 2.06914828 4.76026283 3.20587064 6 7.3125 C6 11.61658175 4.82646807 14.13631753 3 18 C2.60235737 19.98821313 2.24544834 21.98732362 2 24 C1.01 24 0.02 24 -1 24 C-0.32402456 21.10577504 0.55934942 18.35872165 1.5625 15.5625 C3.13800697 10.88238154 3.13800697 10.88238154 3 6 C1.73289389 3.78256431 0.58396847 3.17233889 -1.83984375 2.45703125 C-5.35113532 1.79662073 -7.24839393 1.51247174 -10.3125 3.5 C-13.34726651 7.99595039 -15.18785793 12.63986237 -16 18 C-16.99 18 -17.98 18 -19 18 C-18.24310819 14.73300779 -17.23552206 11.60119657 -16.125 8.4375 C-15.79757812 7.48746094 -15.47015625 6.53742187 -15.1328125 5.55859375 C-14.01393609 3.03147633 -13.15346085 1.69355087 -11 0 C-7.13622834 -1.28792389 -3.88658979 -0.9621772 0 0 Z " fill="#E92F51" transform="translate(31,1)"/>
<path d="M0 0 C3.3 0 6.6 0 10 0 C10.33 0.66 10.66 1.32 11 2 C8.03 2 5.06 2 2 2 C2 8.27 2 14.54 2 21 C2.66 21 3.32 21 4 21 C4 19.02 4 17.04 4 15 C5.32 15.33 6.64 15.66 8 16 C7.34 16.33 6.68 16.66 6 17 C6 18.98 6 20.96 6 23 C4.02 22.67 2.04 22.34 0 22 C0 14.74 0 7.48 0 0 Z " fill="#194A8B" transform="translate(40,28)"/>
<path d="M0 0 C3.375 -0.125 3.375 -0.125 7 0 C9 2 9 2 9.125 5.625 C9.08375 6.73875 9.0425 7.8525 9 9 C4.545 9.495 4.545 9.495 0 10 C0 6.7 0 3.4 0 0 Z M3 3 C3 4.32 3 5.64 3 7 C4.32 6.67 5.64 6.34 7 6 C6.67 5.01 6.34 4.02 6 3 C5.01 3 4.02 3 3 3 Z " fill="#1C4D8E" transform="translate(44,32)"/>
<path d="M0 0 C0.90492187 0.02320312 1.80984375 0.04640625 2.7421875 0.0703125 C4.10730469 0.09738281 4.10730469 0.09738281 5.5 0.125 C6.19867188 0.14820312 6.89734375 0.17140625 7.6171875 0.1953125 C5.45454738 4.17912325 2.90507574 7.08514795 -0.3828125 10.1953125 C-0.3828125 9.2053125 -0.3828125 8.2153125 -0.3828125 7.1953125 C-1.3728125 6.8653125 -2.3628125 6.5353125 -3.3828125 6.1953125 C-3.0528125 5.5353125 -2.7228125 4.8753125 -2.3828125 4.1953125 C-3.0428125 3.5353125 -3.7028125 2.8753125 -4.3828125 2.1953125 C-2.3828125 0.1953125 -2.3828125 0.1953125 0 0 Z " fill="#2B5B9A" transform="translate(75.3828125,27.8046875)"/>
<path d="M0 0 C2.90598539 0.54064844 4.84993077 0.22966066 7.6875 -0.5 C7.0275 1.15 6.3675 2.8 5.6875 4.5 C1.95263121 5.0745952 -1.52543268 5.5 -5.3125 5.5 C-4.9375 3.0625 -4.9375 3.0625 -4.3125 0.5 C-2.3125 -0.5 -2.3125 -0.5 0 0 Z " fill="#2B5B9B" transform="translate(149.3125,21.5)"/>
<path d="M0 0 C0.66 0.33 1.32 0.66 2 1 C2 3.97 2 6.94 2 10 C-0.97 10 -3.94 10 -7 10 C-7 7.69 -7 5.38 -7 3 C-6.34 3 -5.68 3 -5 3 C-5 4.65 -5 6.3 -5 8 C-3.68 7.67 -2.36 7.34 -1 7 C-0.77390663 4.87635519 -0.77390663 4.87635519 -2.5 3.375 C-2.995 2.92125 -3.49 2.4675 -4 2 C-2.125 0.9375 -2.125 0.9375 0 0 Z " fill="#1C4D8E" transform="translate(119,31)"/>
<path d="M0 0 C0.33 0.66 0.66 1.32 1 2 C0.09239638 4.59732225 -0.87067892 7.09450975 -1.9375 9.625 C-2.22818359 10.33140625 -2.51886719 11.0378125 -2.81835938 11.765625 C-3.53867488 13.51327573 -4.26845694 15.25701915 -5 17 C-4.34 17.33 -3.68 17.66 -3 18 C-4.65 18 -6.3 18 -8 18 C-7.04832179 15.37241047 -6.08902879 12.74805507 -5.125 10.125 C-4.85558594 9.37863281 -4.58617187 8.63226563 -4.30859375 7.86328125 C-2.2265625 2.2265625 -2.2265625 2.2265625 0 0 Z M-3 15 C-2.01 15.495 -2.01 15.495 -1 16 C-1.99 16.495 -1.99 16.495 -3 17 C-3 16.34 -3 15.68 -3 15 Z " fill="#194A8B" transform="translate(170,32)"/>
<path d="M0 0 C1.66832577 2.50248865 2.62381674 4.41149187 3.625 7.1875 C3.88539063 7.90292969 4.14578125 8.61835937 4.4140625 9.35546875 C4.60742188 9.89816406 4.80078125 10.44085938 5 11 C2.69 11 0.38 11 -2 11 C-2.33 10.34 -2.66 9.68 -3 9 C-6.02934491 8.34227572 -6.02934491 8.34227572 -9 8 C-9 7.67 -9 7.34 -9 7 C-1.25 6.875 -1.25 6.875 1 8 C0.649375 7.4225 0.29875 6.845 -0.0625 6.25 C-1.14917407 3.64198224 -0.93065133 2.60582371 0 0 Z " fill="#1A4B8C" transform="translate(180,40)"/>
<path d="M0 0 C1.65 0 3.3 0 5 0 C5 2.31 5 4.62 5 7 C3.35 7 1.7 7 0 7 C0 4.69 0 2.38 0 0 Z " fill="#3162A3" transform="translate(52,57)"/>
<path d="M0 0 C0.66 0 1.32 0 2 0 C2 3.3 2 6.6 2 10 C2.66 10 3.32 10 4 10 C4 10.66 4 11.32 4 12 C2.02 12.99 2.02 12.99 0 14 C0 9.38 0 4.76 0 0 Z " fill="#23579B" transform="translate(64,30)"/>
<path d="M0 0 C1.32 0.33 2.64 0.66 4 1 C3.6875 3.375 3.6875 3.375 3 6 C2.01 6.66 1.02 7.32 0 8 C0 7.01 0 6.02 0 5 C-0.99 4.67 -1.98 4.34 -3 4 C-2.01 2.68 -1.02 1.36 0 0 Z " fill="#3362A1" transform="translate(75,30)"/>
<path d="M0 0 C1.32 0 2.64 0 4 0 C4 2.31 4 4.62 4 7 C2.68 7 1.36 7 0 7 C0 4.69 0 2.38 0 0 Z " fill="#285B9E" transform="translate(20,57)"/>
<path d="M0 0 C1.32 0.33 2.64 0.66 4 1 C4 3.64 4 6.28 4 9 C1.03 9 -1.94 9 -5 9 C-5 8.67 -5 8.34 -5 8 C-1.535 7.505 -1.535 7.505 2 7 C1.34 6.34 0.68 5.68 0 5 C-0.125 2.375 -0.125 2.375 0 0 Z " fill="#32609D" transform="translate(112,43)"/>
<path d="M0 0 C1.32 0 2.64 0 4 0 C4 2.31 4 4.62 4 7 C2.68 7 1.36 7 0 7 C0 4.69 0 2.38 0 0 Z " fill="#2F61A2" transform="translate(92,57)"/>
<path d="M0 0 C1.32 0 2.64 0 4 0 C4 2.31 4 4.62 4 7 C2.68 7 1.36 7 0 7 C0 4.69 0 2.38 0 0 Z " fill="#2F60A1" transform="translate(82,57)"/>
<path d="M0 0 C1.32 0 2.64 0 4 0 C4 2.31 4 4.62 4 7 C2.68 7 1.36 7 0 7 C0 4.69 0 2.38 0 0 Z " fill="#3265A8" transform="translate(41,57)"/>
<path d="M0 0 C1.32 0 2.64 0 4 0 C4 2.31 4 4.62 4 7 C2.68 7 1.36 7 0 7 C0 4.69 0 2.38 0 0 Z " fill="#3363A4" transform="translate(116,57)"/>
<path d="M0 0 C1.32 0 2.64 0 4 0 C4 2.31 4 4.62 4 7 C2.68 7 1.36 7 0 7 C0 4.69 0 2.38 0 0 Z M2 1 C3 3 3 3 3 3 Z M2 4 C3 6 3 6 3 6 Z " fill="#2D60A5" transform="translate(105,57)"/>
<path d="M0 0 C1.32 0 2.64 0 4 0 C4 2.31 4 4.62 4 7 C2.68 7 1.36 7 0 7 C0 4.69 0 2.38 0 0 Z M2 1 C3 3 3 3 3 3 Z " fill="#2A5C9E" transform="translate(144,57)"/>
<path d="M0 0 C1.32 0 2.64 0 4 0 C4 2.31 4 4.62 4 7 C2.68 7 1.36 7 0 7 C0 4.69 0 2.38 0 0 Z M2 1 C2 2.65 2 4.3 2 6 C2.33 6 2.66 6 3 6 C3 4.35 3 2.7 3 1 C2.67 1 2.34 1 2 1 Z " fill="#2C5D9D" transform="translate(28,57)"/>
<path d="M0 0 C1.32 0 2.64 0 4 0 C4 2.31 4 4.62 4 7 C2.68 7 1.36 7 0 7 C0 4.69 0 2.38 0 0 Z M2 1 C3 3 3 3 3 3 Z " fill="#26589C" transform="translate(63,57)"/>
<path d="M0 0 C1.32 0 2.64 0 4 0 C3.125 4.75 3.125 4.75 2 7 C1.34 7 0.68 7 0 7 C0 4.69 0 2.38 0 0 Z " fill="#2D5E9F" transform="translate(0,57)"/>
<path d="M0 0 C0.99 0.33 1.98 0.66 3 1 C3 2.98 3 4.96 3 7 C1.68 7 0.36 7 -1 7 C-0.67 4.69 -0.34 2.38 0 0 Z " fill="#3364A5" transform="translate(127,57)"/>
<path d="M0 0 C0.99 0 1.98 0 3 0 C3 2.31 3 4.62 3 7 C1.68 7 0.36 7 -1 7 C-1.04254356 5.00045254 -1.04080783 2.99958364 -1 1 C-0.67 0.67 -0.34 0.34 0 0 Z M1 1 C1 2.65 1 4.3 1 6 C1.33 6 1.66 6 2 6 C2 4.35 2 2.7 2 1 C1.67 1 1.34 1 1 1 Z " fill="#2F60A0" transform="translate(137,57)"/>
<path d="M0 0 C0.99 0 1.98 0 3 0 C3 2.31 3 4.62 3 7 C1.68 7 0.36 7 -1 7 C-1.04254356 5.00045254 -1.04080783 2.99958364 -1 1 C-0.67 0.67 -0.34 0.34 0 0 Z M1 1 C1 2.65 1 4.3 1 6 C1.33 6 1.66 6 2 6 C2 4.35 2 2.7 2 1 C1.67 1 1.34 1 1 1 Z " fill="#3162A1" transform="translate(47,57)"/>
<path d="M0 0 C1.32 0 2.64 0 4 0 C4 2.33333333 4 4.66666667 4 7 C2.68 7 1.36 7 0 7 C0 4.66666667 0 2.33333333 0 0 Z " fill="#3163A5" transform="translate(10,57)"/>
<path d="M0 0 C0.66 0 1.32 0 2 0 C2.33 2.31 2.66 4.62 3 7 C1.68 7 0.36 7 -1 7 C-0.67 4.69 -0.34 2.38 0 0 Z " fill="#3262A2" transform="translate(6,57)"/>
<path d="M0 0 C1.41687119 4.25061356 0.19320039 6.71851625 -1 11 C-1.99 11 -2.98 11 -4 11 C-3.21681311 7.08406554 -1.60820142 3.63593365 0 0 Z " fill="#DB294E" transform="translate(34,14)"/>
<path d="M0 0 C1.32 0.33 2.64 0.66 4 1 C4 1.99 4 2.98 4 4 C3.34 4 2.68 4 2 4 C2 4.99 2 5.98 2 7 C1.34 7 0.68 7 0 7 C0 4.69 0 2.38 0 0 Z " fill="#3C6EAF" transform="translate(172,57)"/>
<path d="M0 0 C1.32 0 2.64 0 4 0 C4 2.33333333 4 4.66666667 4 7 C2.68 7 1.36 7 0 7 C0.33 6.01 0.66 5.02 1 4 C0.61067144 1.85744207 0.61067144 1.85744207 0 0 Z " fill="#3969A8" transform="translate(74,57)"/>
<path d="M0 0 C1.32 0.33 2.64 0.66 4 1 C4 2.65 4 4.3 4 6 C2.68 6.33 1.36 6.66 0 7 C0 4.69 0 2.38 0 0 Z M1 1 C1 2.65 1 4.3 1 6 C1.33 6 1.66 6 2 6 C2 4.35 2 2.7 2 1 C1.67 1 1.34 1 1 1 Z " fill="#3263A4" transform="translate(150,57)"/>
<path d="M0 0 C0.66 0 1.32 0 2 0 C2.33 2.31 2.66 4.62 3 7 C1.68 7 0.36 7 -1 7 C-0.67 4.69 -0.34 2.38 0 0 Z " fill="#3464A4" transform="translate(70,57)"/>
<path d="M0 0 C1.32 0 2.64 0 4 0 C3.125 4.75 3.125 4.75 2 7 C1.34 7 0.68 7 0 7 C0 4.69 0 2.38 0 0 Z M2 1 C3 3 3 3 3 3 Z " fill="#2B5EA1" transform="translate(58,57)"/>
<path d="M0 0 C0.66 0 1.32 0 2 0 C1.67 1.32 1.34 2.64 1 4 C2.65 4.33 4.3 4.66 6 5 C6 5.33 6 5.66 6 6 C2.7 6 -0.6 6 -4 6 C-3.01 5.67 -2.02 5.34 -1 5 C-0.67 3.35 -0.34 1.7 0 0 Z " fill="#245698" transform="translate(172,40)"/>
<path d="M0 0 C0.66 0 1.32 0 2 0 C2.33 2.31 2.66 4.62 3 7 C1.68 7 0.36 7 -1 7 C-1.04254356 5.00045254 -1.04080783 2.99958364 -1 1 C-0.67 0.67 -0.34 0.34 0 0 Z " fill="#3465A6" transform="translate(160,57)"/>
<path d="M0 0 C1.32 0 2.64 0 4 0 C4 2.33333333 4 4.66666667 4 7 C2.68 7 1.36 7 0 7 C0.33 6.01 0.66 5.02 1 4 C0.61067144 1.85744207 0.61067144 1.85744207 0 0 Z " fill="#4371AF" transform="translate(164,57)"/>
<path d="M0 0 C0.99 0 1.98 0 3 0 C3.33 2.31 3.66 4.62 4 7 C2.35 7 0.7 7 -1 7 C-0.67 4.69 -0.34 2.38 0 0 Z M1 3 C2 5 2 5 2 5 Z " fill="#3767A7" transform="translate(177,57)"/>
<path d="M0 0 C0.99 1.32 1.98 2.64 3 4 C-0.3 4 -3.6 4 -7 4 C-6.67 3.34 -6.34 2.68 -6 2 C-4.02 2 -2.04 2 0 2 C0 1.34 0 0.68 0 0 Z " fill="#33609D" transform="translate(81,48)"/>
<path d="M0 0 C1.32 0.33 2.64 0.66 4 1 C3.34 1 2.68 1 2 1 C2.33 1.99 2.66 2.98 3 4 C2.67 4.66 2.34 5.32 2 6 C2.66 6.33 3.32 6.66 4 7 C2.68 7 1.36 7 0 7 C0 4.69 0 2.38 0 0 Z " fill="#2C5D9F" transform="translate(15,57)"/>
<path d="M0 0 C1.32 0.33 2.64 0.66 4 1 C3.34 1 2.68 1 2 1 C2.33 1.99 2.66 2.98 3 4 C2.67 4.66 2.34 5.32 2 6 C2.66 6.33 3.32 6.66 4 7 C2.68 7 1.36 7 0 7 C0 4.69 0 2.38 0 0 Z " fill="#2B5FA3" transform="translate(87,57)"/>
<path d="M0 0 C1.32 0.33 2.64 0.66 4 1 C3.34 2.65 2.68 4.3 2 6 C2.66 6.33 3.32 6.66 4 7 C2.68 7 1.36 7 0 7 C0.185625 6.21625 0.37125 5.4325 0.5625 4.625 C1.25962266 2.02910225 1.25962266 2.02910225 0 0 Z " fill="#4B78B4" transform="translate(182,57)"/>
<path d="M0 0 C0.99 0 1.98 0 3 0 C3 2.31 3 4.62 3 7 C2.01 7 1.02 7 0 7 C0 4.69 0 2.38 0 0 Z M1 1 C1 2.65 1 4.3 1 6 C1.33 6 1.66 6 2 6 C2 4.35 2 2.7 2 1 C1.67 1 1.34 1 1 1 Z " fill="#2E5F9F" transform="translate(111,57)"/>
<path d="M0 0 C1.32 0 2.64 0 4 0 C3.814375 0.78375 3.62875 1.5675 3.4375 2.375 C2.74037734 4.97089775 2.74037734 4.97089775 4 7 C2.68 6.67 1.36 6.34 0 6 C0.66 4.35 1.32 2.7 2 1 C1.34 0.67 0.68 0.34 0 0 Z " fill="#3868A6" transform="translate(121,57)"/>
<path d="M0 0 C0.99 0.33 1.98 0.66 3 1 C2.34 1 1.68 1 1 1 C1 1.66 1 2.32 1 3 C1.66 3.33 2.32 3.66 3 4 C2.34 4 1.68 4 1 4 C1 4.66 1 5.32 1 6 C1.66 6.33 2.32 6.66 3 7 C2.01 7 1.02 7 0 7 C0 4.69 0 2.38 0 0 Z " fill="#2C5FA3" transform="translate(34,57)"/>
<path d="M0 0 C0.99 0.33 1.98 0.66 3 1 C2.34 1 1.68 1 1 1 C1 1.66 1 2.32 1 3 C1.66 3.33 2.32 3.66 3 4 C2.34 4 1.68 4 1 4 C1 4.66 1 5.32 1 6 C1.66 6.33 2.32 6.66 3 7 C2.01 7 1.02 7 0 7 C0 4.69 0 2.38 0 0 Z " fill="#2C60A4" transform="translate(98,57)"/>
<path d="M0 0 C0.33 0 0.66 0 1 0 C1 1.98 1 3.96 1 6 C1.66 6.33 2.32 6.66 3 7 C2.01 7 1.02 7 0 7 C0 4.69 0 2.38 0 0 Z " fill="#25599D" transform="translate(132,57)"/>
<path d="M0 0 C0.33 0 0.66 0 1 0 C1 2.31 1 4.62 1 7 C0.34 6.67 -0.32 6.34 -1 6 C-0.67 4.02 -0.34 2.04 0 0 Z " fill="#3D6DAC" transform="translate(156,57)"/>
</svg>
